<svg xmlns="http://www.w3.org/2000/svg" viewBox="0 0 418.38 189.53"><defs><style>.cls-1{fill:#fff;}</style></defs><g id="レイヤー_2" data-name="レイヤー 2"><g id="base"><path class="cls-1" d="M59.43,51c-.33.58-.68,1.14-1,1.74C56.3,57.05,54.11,61.39,52,65.78A215.66,215.66,0,0,1,39.9,87a4.09,4.09,0,1,1-7.07-4.11c.71-1.32,1.51-2.61,2.33-3.87A199.5,199.5,0,0,0,46.55,58.33C49.67,52,53,45.82,56.3,39.58c.42-.79.93-1.52,1.42-2.26,1-1.49,1-1.49.65-3.53a2.24,2.24,0,0,0-.73,0C41.73,39.1,25.91,44.64,11,52.38a33,33,0,0,0-4.24,2.84,4.23,4.23,0,0,1-5,.2,3.91,3.91,0,0,1-1.39-4.9,6.92,6.92,0,0,1,2-2.51,38.94,38.94,0,0,1,4.55-2.78c8.71-4.82,18-8.39,27.27-11.85,7.31-2.72,14.71-5.2,22.06-7.78L57.82,25c-.11-2.13-.26-4.17-.33-6.21-.14-4.25-.23-8.49-.35-12.73a5.41,5.41,0,0,1,1-3.48,4.12,4.12,0,0,1,4.73-1.55,4,4,0,0,1,2.69,4.16c-.53,5.55,0,11.08.32,16.61a6.35,6.35,0,0,0,.17.77c.66-.15,1.32-.24,1.94-.44,6.1-2,12.2-4.05,18.28-6.14A4.2,4.2,0,0,1,91.68,18a4,4,0,0,1-1.86,5.43A16,16,0,0,1,87,24.6q-9.17,3-18.36,5.89l-1.75.56a1.14,1.14,0,0,0,.26,1.62c2.69,2.5,2.8,4.06.65,6.8a2.26,2.26,0,0,0-.45,1.46q.72,10.14,1.53,20.28.9,11.06,1.91,22.1c.27,3,.64,6,1.06,9,.36,2.58-.91,4.73-3.2,5.16a4,4,0,0,1-4.85-3.57c-.64-4.81-1.15-9.65-1.6-14.48-.71-7.64-1.32-15.28-2-22.92-.16-1.81-.29-3.63-.44-5.45Z"/><path class="cls-1" d="M231.78,9C238,6,244.71,4.65,251.42,3.34A180.75,180.75,0,0,1,274.81.2c4.58-.28,9.17-.44,13.69.74,6.6,1.73,10.07,6.63,10.85,12.94a38.83,38.83,0,0,1-1.05,13.24c-1.72,7.79-4.83,15.1-7.75,22.48A231.3,231.3,0,0,1,271,88.43c-2.46,3.87-4.57,7.95-6.8,12a4.44,4.44,0,0,1-3.05,2.51,3.88,3.88,0,0,1-3.89-1.3,3.73,3.73,0,0,1-.79-4,13.38,13.38,0,0,1,.79-1.67c2.15-3.81,4.15-7.72,6.5-11.41a229.21,229.21,0,0,0,19.95-40c2.57-6.56,5.3-13.07,6.71-20a29.3,29.3,0,0,0,.74-9.57c-.46-3.72-1.94-5.68-5.69-6.19a51.15,51.15,0,0,0-9.82-.35,177.1,177.1,0,0,0-32.59,5.23c-1.91.49-3.77,1.23-5.65,1.85a1.65,1.65,0,0,0-1.35,1.59,1.56,1.56,0,0,1-.29,1c-1.37,1.41-1,3-.51,4.58,1.25,4.48,2.45,9,3.75,13.43a4.39,4.39,0,0,0,2.69,3.33,3.48,3.48,0,0,1,2.08,3.7,4.31,4.31,0,0,1-2.74,3.8,4.75,4.75,0,0,1-5.68-1,16.25,16.25,0,0,1-2.6-3.65c-2.06-3.83-3.1-8-4.12-12.22-1.33-5.45-2.46-11-3.73-16.41-.43-1.83-.19-3.44,1.32-4.63a4,4,0,0,1,5-.14A5.84,5.84,0,0,0,231.78,9Z"/><path class="cls-1" d="M124,46.75c-.46-3.42-.89-6.66-1.34-10.06a10.36,10.36,0,0,0-1.43.24c-6.83,2.18-13.68,4.34-20.5,6.58-2.29.75-4.43.05-5.41-2a4.09,4.09,0,0,1,2-5.54,17,17,0,0,1,2.67-1q10.38-3.27,20.76-6.49l1.13-.33c0-.67,0-1.33,0-2a46.44,46.44,0,0,1,.64-11,6.68,6.68,0,0,1,2.15-3.88,4.78,4.78,0,0,1,4.77-1.08,4,4,0,0,1,1.95,6.56,4.36,4.36,0,0,0-1.23,3.1c0,2,0,4,0,6.2.74-.1,1.38-.17,2-.28,2.9-.48,5.79-1,8.7-1.42a5.62,5.62,0,0,1,2.6.29,4,4,0,0,1-.45,7.54c-1.51.38-3.1.49-4.64.77-2.48.46-5,1-7.7,1.51.41,3.23.8,6.31,1.22,9.59.7-.19,1.22-.29,1.7-.47,4.3-1.56,8.61-3.12,12.9-4.72a4.15,4.15,0,0,1,5.31,1.77,4,4,0,0,1-1.59,5.5,29.1,29.1,0,0,1-4.49,2c-3.54,1.26-7.12,2.43-10.68,3.63l-1.75.62c.42,2.36.8,4.7,1.25,7a171.15,171.15,0,0,0,5.74,22.87c.85,2.48,0,4.58-2.18,5.47A4,4,0,0,1,132.66,85c-1.26-3.9-2.51-7.82-3.45-11.81-1.29-5.45-2.3-11-3.43-16.47-.09-.46-.23-.91-.34-1.33-.2-.06-.34-.17-.43-.13-5.78,2.13-11.58,4.21-16.78,7.61a15,15,0,0,0-2.1,1.63c-2.12,2-4.62,2.09-6.31.18a4.27,4.27,0,0,1,.79-6.35A44.83,44.83,0,0,1,108,53.53c4.42-2.14,9-3.91,13.57-5.82C122.32,47.39,123.09,47.12,124,46.75Z"/><path class="cls-1" d="M187.69,26.73c.37-3.46.63-6.81,1.11-10.12a12.22,12.22,0,0,1,1.35-3.81,4.81,4.81,0,0,1,4.07-2.41,4.12,4.12,0,0,1,4.12,2.15,3.8,3.8,0,0,1-.54,4.57,4.37,4.37,0,0,0-1.23,3.13c-.1,1.29-.23,2.59-.33,3.88,0,.12.09.25.21.58,2.93-.73,5.91-1.43,8.85-2.23A46.65,46.65,0,0,0,209.75,21a4.16,4.16,0,0,1,5.2,1.63,3.94,3.94,0,0,1-1,5.32,12.13,12.13,0,0,1-3.69,1.69c-4.22,1.18-8.47,2.22-12.71,3.31l-1.68.47c0,.72-.1,1.39-.11,2.06-.11,6.09-.29,12.18-.29,18.28,0,8.64-.81,17.23-1.5,25.83-.09,1.09-.15,2.18-.22,3.28-.19,2.59-2,4.37-4.34,4.22a4.07,4.07,0,0,1-3.85-4.46c.2-3.83.62-7.64.83-11.47q.51-9.33.84-18.67c.17-5,.19-10,.26-15,0-.61,0-1.22,0-2a12.64,12.64,0,0,0-1.46.18,117.14,117.14,0,0,0-17.31,5.07,15,15,0,0,0-2.35,1.23c-2.2,1.45-4.63,1.15-6-.78a4.29,4.29,0,0,1,1.14-6,18.2,18.2,0,0,1,3.45-1.79A114.41,114.41,0,0,1,182.58,28Z"/><path class="cls-1" d="M258.31,139.85a3,3,0,0,0-.8,0c-2.47.82-4.95,1.61-7.38,2.52a3.76,3.76,0,0,0-1.73,1.31,4.2,4.2,0,0,1-5.79,1.21,4.56,4.56,0,0,1-1.26-5.88,8.09,8.09,0,0,1,4.48-3.74c3.53-1.31,7.1-2.48,10.66-3.7.91-.31,1.83-.57,2.8-.87.47-2.15.85-4.3,1.43-6.39a8.18,8.18,0,0,1,4.63-5.45c2.38-1.09,4.61-.53,5.75,1.45s.58,4.19-1.61,5.64a1.69,1.69,0,0,0-1,1.94,15.08,15.08,0,0,0,1.52-.27c3.3-.93,6.58-1.88,9.87-2.82a15.41,15.41,0,0,1,1.59-.4,4.08,4.08,0,0,1,2.4,7.74,14.45,14.45,0,0,1-2,.63L267,137.06c-.18,2.07-.46,4.1-.5,6.14q-.28,14.69-.43,29.38a65.61,65.61,0,0,0,.4,6.56,7.28,7.28,0,0,0,1.36,3.8,4.09,4.09,0,0,1-6.42,5.07c-2.12-2.27-2.81-5.14-3.13-8.09a70.28,70.28,0,0,1-.43-8.2c.14-10.41.38-20.82.58-31.23A4,4,0,0,0,258.31,139.85Z"/><path class="cls-1" d="M209.41,147.1c-.23-2.54-.44-4.91-.67-7.52-2,.4-3.91.73-5.76,1.14a45,45,0,0,0-4.56,1.21,9.54,9.54,0,0,0-2.65,1.42,4.28,4.28,0,1,1-5.36-6.67,15.43,15.43,0,0,1,4.57-2.24c3.81-1.08,7.69-1.92,11.54-2.85.45-.11.9-.24,1.17-.32,0-1.84-.06-3.54,0-5.24a4.35,4.35,0,0,1,4.68-4.35,3.53,3.53,0,0,1,1.89.67c2.46,2.16,4.07,4.18,2.7,7.57.6.13,1.18.27,1.75.37a6.58,6.58,0,0,1,4.06,2.21,4.19,4.19,0,0,1,.41,5.13,4.05,4.05,0,0,1-4.89,1.51c-.32-.1-.63-.26-1.1-.46a25.1,25.1,0,0,0,.41,6.72c1.84-.38,3.57-.68,5.27-1.09,2.5-.61,4.61.36,5.33,2.52a4,4,0,0,1-2.88,5.29c-1.75.55-3.59.82-5.4,1.22-.52.11-1,.25-1.64.39,0,.77,0,1.44,0,2.11,0,4.25.18,8.49.05,12.73a4,4,0,0,1-5.58,3.6c-1.71-.67-2.58-2.28-2.57-4.47,0-3.63-.06-7.26-.1-10.88,0-.34-.07-.67-.1-1-.26,0-.47-.17-.62-.12-2.85,1-5.69,1.93-8.51,3a3,3,0,0,0-1.81,1.81,4.08,4.08,0,0,1-5.71,2.34,4.43,4.43,0,0,1-2.57-5.73,7.23,7.23,0,0,1,2.7-3.52,36,36,0,0,1,10.93-5.05C206,148,207.58,147.59,209.41,147.1Z"/><path class="cls-1" d="M391.22,148.2a14.68,14.68,0,0,1-.94-1.15,3.87,3.87,0,0,1,.06-4.61c3.1-3.79,6.81-6.81,11.67-7.92a11.15,11.15,0,0,1,12,4.35c4.88,6.35,5.61,13.36,2.45,20.68a25.54,25.54,0,0,1-9.26,11,12.63,12.63,0,0,1-8.65,2.58,8.88,8.88,0,0,1-7.41-5.12,18.2,18.2,0,0,1-1.63-5.25,27.12,27.12,0,0,1,.22-9.59C390.09,151.52,390.7,149.92,391.22,148.2Zm7.62-3.07c.39.47.61.72.8,1,1.53,2,1.45,4.15-.42,5.84a4.29,4.29,0,0,0-1.49,3,46,46,0,0,0-.05,6.74c.31,3.42,1.91,4.08,4.78,2.14a17.8,17.8,0,0,0,6.62-7.92,11.44,11.44,0,0,0-1.36-11.83,3.55,3.55,0,0,0-4.7-1.32C401.61,143.42,400.31,144.3,398.84,145.13Z"/><path class="cls-1" d="M141.6,182.84a9.91,9.91,0,0,1-7.2-3.72,20.83,20.83,0,0,1-2.44-3.54,71,71,0,0,1-6.69-17.6,6.33,6.33,0,0,1,.24-4.41,4.36,4.36,0,0,1,5.2-2.26,4.19,4.19,0,0,1,3,4.35,10.47,10.47,0,0,0,.41,3.59c1.41,3.85,3,7.63,4.51,11.44a10.14,10.14,0,0,0,.58,1.08c1.77,3,2.53,3.33,5.42,1.22,2.7-2,5.17-4.26,7.73-6.42a19.57,19.57,0,0,1,1.54-1.35,4,4,0,0,1,5.39.62,3.83,3.83,0,0,1,.11,5.25c-4,4-8.06,8-13.34,10.44A31.54,31.54,0,0,1,141.6,182.84Z"/><path class="cls-1" d="M340,156.8c2.55-1.15,4.09-3,5.85-4.63.6-.55,1.13-1.19,1.76-1.71a4.14,4.14,0,0,1,5.44.17,3.83,3.83,0,0,1,.42,5.38c-2.74,3-5.55,6.07-9.31,7.94a8.27,8.27,0,0,1-9.41-.95,18.17,18.17,0,0,1-3-3.09,41.53,41.53,0,0,1-6.07-11.8,9.74,9.74,0,0,1-.53-5.24,5.84,5.84,0,0,1,5.21-4.2,4.06,4.06,0,0,1,3.66,5.7,2.85,2.85,0,0,0,0,2.68c1.36,2.59,2.7,5.2,4.15,7.75A12.07,12.07,0,0,0,340,156.8Z"/><path class="cls-1" d="M293.77,177.56a21.26,21.26,0,0,1-9.34-2.48c-3.33-1.89-4.5-5-5.08-8.46a4,4,0,0,1,2.79-4.09,4.1,4.1,0,0,1,4.8,1.8,4.78,4.78,0,0,1,.58,1.52c.32,2,1.7,2.66,3.38,3.08a10.36,10.36,0,0,0,7.54-1,31.31,31.31,0,0,0,8-6c.48-.48.94-1,1.44-1.46a4,4,0,0,1,5.87-.09,4,4,0,0,1,.06,5.71,54.49,54.49,0,0,1-5,4.81c-3.88,3.22-8.12,5.81-13.27,6.46C294.87,177.45,294.26,177.51,293.77,177.56Z"/><path class="cls-1" d="M273.22,164.08a4,4,0,0,1-3.37-6.11,15.14,15.14,0,0,1,3.49-4,55.35,55.35,0,0,1,7.07-4.51c4.15-2.26,8.39-4.34,12.59-6.48a14.86,14.86,0,0,1,1.88-.82,4.08,4.08,0,0,1,3.18,7.49c-3.64,1.9-7.31,3.74-11,5.61-1.82.94-3.65,1.87-5.45,2.86a13.49,13.49,0,0,0-4.82,4.06A4.06,4.06,0,0,1,273.22,164.08Z"/><path class="cls-1" d="M216.83,187.79c-6.22,0-12.28-.32-18-2.75a20,20,0,0,1-3.11-1.55,4.4,4.4,0,0,1-.17-7.42c2.79-2.07,4.86-1.72,7,1.07a2.94,2.94,0,0,0,1.63,1.05c3,.52,5.92,1.08,8.9,1.31a66.33,66.33,0,0,0,7.18-.18c.75,0,1.5-.1,2.25-.1a4.08,4.08,0,0,1,.63,8.14C221,187.61,218.85,187.66,216.83,187.79Z"/><path class="cls-1" d="M361.75,125.4a4,4,0,0,1,4.15,3.51,37.46,37.46,0,0,1,.41,4.49c.17,4.85.22,9.71.45,14.55.1,2.18.51,4.34.75,6.51a4.08,4.08,0,0,1-4.68,4.75,3.84,3.84,0,0,1-3.43-3.54c-.47-4.48-.84-9-1.17-13.47-.13-1.84-.05-3.69-.06-5.54a7.3,7.3,0,0,0-1-4.28C355.8,130.25,357.94,125.13,361.75,125.4Z"/><path class="cls-1" d="M164.88,158.49c0-2.8-.07-5.6,0-8.4a4,4,0,0,1,3.48-4.17c2.78-.37,4.77,1.56,4.72,4.54q-.11,6.34-.16,12.69c0,1.43.08,2.87.17,4.3a4.11,4.11,0,1,1-8.15,1.06,23.6,23.6,0,0,1-.23-3.26c0-1.78,0-3.55,0-5.33v-1.43Z"/></g></g></svg>